<?xml version="1.0" encoding="UTF-8" standalone="no"?>
<!DOCTYPE svg PUBLIC "-//W3C//DTD SVG 1.1//EN"
 "http://www.w3.org/Graphics/SVG/1.1/DTD/svg11.dtd">
<!-- Generated by graphviz version 16.0.0 (20260814.1018)
 -->
<!-- Title: DigitalArchitecture Pages: 1 -->
<svg width="5917pt" height="7353pt"
 viewBox="0.00 0.00 5917.00 7353.00" xmlns="http://www.w3.org/2000/svg" xmlns:xlink="http://www.w3.org/1999/xlink">
<g id="graph0" class="graph" transform="scale(4.16667 4.16667) rotate(0) translate(36 1728.7)">
<title>DigitalArchitecture</title>
<polygon fill="white" stroke="none" points="-36,36 -36,-1728.7 1384,-1728.7 1384,36 -36,36"/>
<g id="clust1" class="cluster">
<title>cluster_L1</title>
<path fill="#f8fafc" stroke="#cbd5e0" stroke-width="1.3" d="M20,-1590.79C20,-1590.79 1328,-1590.79 1328,-1590.79 1334,-1590.79 1340,-1596.79 1340,-1602.79 1340,-1602.79 1340,-1672.7 1340,-1672.7 1340,-1678.7 1334,-1684.7 1328,-1684.7 1328,-1684.7 20,-1684.7 20,-1684.7 14,-1684.7 8,-1678.7 8,-1672.7 8,-1672.7 8,-1602.79 8,-1602.79 8,-1596.79 14,-1590.79 20,-1590.79"/>
<text xml:space="preserve" text-anchor="start" x="506.38" y="-1670.3" font-family="Arial" font-weight="bold" font-size="12.00" fill="#1a365d">1. PHYSICAL DATA SOURCES &#45; Retrofitted Instrumentation</text>
</g>
<g id="clust3" class="cluster">
<title>cluster_L2</title>
<path fill="#f8fafc" stroke="#cbd5e0" stroke-width="1.3" d="M559,-1178.99C559,-1178.99 1035,-1178.99 1035,-1178.99 1041,-1178.99 1047,-1184.99 1047,-1190.99 1047,-1190.99 1047,-1551.54 1047,-1551.54 1047,-1557.54 1041,-1563.54 1035,-1563.54 1035,-1563.54 559,-1563.54 559,-1563.54 553,-1563.54 547,-1557.54 547,-1551.54 547,-1551.54 547,-1190.99 547,-1190.99 547,-1184.99 553,-1178.99 559,-1178.99"/>
<text xml:space="preserve" text-anchor="start" x="621.5" y="-1549.14" font-family="Arial" font-weight="bold" font-size="12.00" fill="#1a365d">2. INDUSTRIAL EDGE GATEWAY &#45; WISE&#45;710 / Linux Appliance</text>
</g>
<g id="clust4" class="cluster">
<title>cluster_L3</title>
<path fill="#f8fafc" stroke="#cbd5e0" stroke-width="1.3" d="M523,-486.8C523,-486.8 1071,-486.8 1071,-486.8 1077,-486.8 1083,-492.8 1083,-498.8 1083,-498.8 1083,-1149.99 1083,-1149.99 1083,-1155.99 1077,-1161.99 1071,-1161.99 1071,-1161.99 523,-1161.99 523,-1161.99 517,-1161.99 511,-1155.99 511,-1149.99 511,-1149.99 511,-498.8 511,-498.8 511,-492.8 517,-486.8 523,-486.8"/>
<text xml:space="preserve" text-anchor="start" x="630.12" y="-1147.59" font-family="Arial" font-weight="bold" font-size="12.00" fill="#1a365d">3. DATA &amp; ANALYTICS ENGINE &#45; Nine Processing Modules</text>
</g>
<g id="clust5" class="cluster">
<title>cluster_L4</title>
<path fill="#f8fafc" stroke="#cbd5e0" stroke-width="1.3" d="M28,-301.73C28,-301.73 1274,-301.73 1274,-301.73 1280,-301.73 1286,-307.73 1286,-313.73 1286,-313.73 1286,-457.8 1286,-457.8 1286,-463.8 1280,-469.8 1274,-469.8 1274,-469.8 28,-469.8 28,-469.8 22,-469.8 16,-463.8 16,-457.8 16,-457.8 16,-313.73 16,-313.73 16,-307.73 22,-301.73 28,-301.73"/>
<text xml:space="preserve" text-anchor="start" x="472.88" y="-455.4" font-family="Arial" font-weight="bold" font-size="12.00" fill="#1a365d">4. DECISION &amp; ACTION SUPPORT LAYER &#45; Operator Guidance</text>
</g>
<g id="clust7" class="cluster">
<title>cluster_L5</title>
<path fill="#f8fafc" stroke="#cbd5e0" stroke-width="1.3" d="M233,-8C233,-8 1069,-8 1069,-8 1075,-8 1081,-14 1081,-20 1081,-20 1081,-272.73 1081,-272.73 1081,-278.73 1075,-284.73 1069,-284.73 1069,-284.73 233,-284.73 233,-284.73 227,-284.73 221,-278.73 221,-272.73 221,-272.73 221,-20 221,-20 221,-14 227,-8 233,-8"/>
<text xml:space="preserve" text-anchor="start" x="484.88" y="-270.33" font-family="Arial" font-weight="bold" font-size="12.00" fill="#1a365d">5. AUDITED VERIFICATION &amp; PRODUCTION GUARANTEE</text>
</g>
<!-- MTRS -->
<g id="node1" class="node">
<title>MTRS</title>
<path fill="#e6fffa" stroke="#319795" stroke-width="1.4" d="M330.47,-1646.45C330.47,-1646.45 35.53,-1646.45 35.53,-1646.45 29.53,-1646.45 23.53,-1640.45 23.53,-1634.45 23.53,-1634.45 23.53,-1618.79 23.53,-1618.79 23.53,-1612.79 29.53,-1606.79 35.53,-1606.79 35.53,-1606.79 330.47,-1606.79 330.47,-1606.79 336.47,-1606.79 342.47,-1612.79 342.47,-1618.79 342.47,-1618.79 342.47,-1634.45 342.47,-1634.45 342.47,-1640.45 336.47,-1646.45 330.47,-1646.45"/>
<text xml:space="preserve" text-anchor="start" x="67.88" y="-1627.39" font-family="Arial" font-weight="bold" font-size="10.50">8 Digital Energy Meters &#45; RS485 Modbus RTU</text>
<text xml:space="preserve" text-anchor="start" x="39.38" y="-1618.32" font-family="Arial" font-size="9.00" fill="#2d3748">3&#45;Phase Voltages, Phase Currents via 24 Split&#45;Core CTs, Power Factor</text>
</g>
<!-- ACQ -->
<g id="node5" class="node">
<title>ACQ</title>
<path fill="#ebf8ff" stroke="#3182ce" stroke-width="1.4" d="M1019,-1525.29C1019,-1525.29 575,-1525.29 575,-1525.29 569,-1525.29 563,-1519.29 563,-1513.29 563,-1513.29 563,-1497.63 563,-1497.63 563,-1491.63 569,-1485.63 575,-1485.63 575,-1485.63 1019,-1485.63 1019,-1485.63 1025,-1485.63 1031,-1491.63 1031,-1497.63 1031,-1497.63 1031,-1513.29 1031,-1513.29 1031,-1519.29 1025,-1525.29 1019,-1525.29"/>
<text xml:space="preserve" text-anchor="start" x="671.38" y="-1506.23" font-family="Arial" font-weight="bold" font-size="10.50">Modbus / RS485 / Ethernet Master Polling Engine</text>
<text xml:space="preserve" text-anchor="start" x="764.38" y="-1497.16" font-family="Arial" font-size="9.00" fill="#2d3748">5&#45;Min Telemetry</text>
</g>
<!-- MTRS&#45;&gt;ACQ -->
<g id="edge5" class="edge">
<title>MTRS&#45;&gt;ACQ</title>
<path fill="none" stroke="#2b6cb0" stroke-width="1.6" d="M278.04,-1606.18C303.06,-1601.11 330.04,-1595.7 355,-1590.79 466.04,-1568.96 592.94,-1544.83 682.2,-1528"/>
<polygon fill="#2b6cb0" stroke="#2b6cb0" stroke-width="1.6" points="682.71,-1530.93 690.51,-1526.43 681.61,-1525.08 682.71,-1530.93"/>
</g>
<!-- SENS -->
<g id="node2" class="node">
<title>SENS</title>
<path fill="#e6fffa" stroke="#319795" stroke-width="1.4" d="M658.2,-1646.45C658.2,-1646.45 379.8,-1646.45 379.8,-1646.45 373.8,-1646.45 367.8,-1640.45 367.8,-1634.45 367.8,-1634.45 367.8,-1618.79 367.8,-1618.79 367.8,-1612.79 373.8,-1606.79 379.8,-1606.79 379.8,-1606.79 658.2,-1606.79 658.2,-1606.79 664.2,-1606.79 670.2,-1612.79 670.2,-1618.79 670.2,-1618.79 670.2,-1634.45 670.2,-1634.45 670.2,-1640.45 664.2,-1646.45 658.2,-1646.45"/>
<text xml:space="preserve" text-anchor="start" x="459" y="-1627.39" font-family="Arial" font-weight="bold" font-size="10.50">Physical Asset Sensors</text>
<text xml:space="preserve" text-anchor="start" x="386.62" y="-1618.32" font-family="Arial" font-size="9.00" fill="#2d3748">Surface Temperature PT100 RTDs, 3&#45;Axis Vibration Velocity RMS</text>
</g>
<!-- SENS&#45;&gt;ACQ -->
<g id="edge6" class="edge">
<title>SENS&#45;&gt;ACQ</title>
<path fill="none" stroke="#2b6cb0" stroke-width="1.6" d="M564.28,-1606.21C612.85,-1585.39 689.99,-1552.33 742,-1530.03"/>
<polygon fill="#2b6cb0" stroke="#2b6cb0" stroke-width="1.6" points="742.87,-1532.9 749.51,-1526.82 740.52,-1527.43 742.87,-1532.9"/>
</g>
<!-- PROD_IN -->
<g id="node3" class="node">
<title>PROD_IN</title>
<path fill="#edf2f7" stroke="#4a5568" stroke-width="1.4" d="M985.2,-1646.45C985.2,-1646.45 706.8,-1646.45 706.8,-1646.45 700.8,-1646.45 694.8,-1640.45 694.8,-1634.45 694.8,-1634.45 694.8,-1618.79 694.8,-1618.79 694.8,-1612.79 700.8,-1606.79 706.8,-1606.79 706.8,-1606.79 985.2,-1606.79 985.2,-1606.79 991.2,-1606.79 997.2,-1612.79 997.2,-1618.79 997.2,-1618.79 997.2,-1634.45 997.2,-1634.45 997.2,-1640.45 991.2,-1646.45 985.2,-1646.45"/>
<text xml:space="preserve" text-anchor="start" x="790.12" y="-1627.39" font-family="Arial" font-weight="bold" font-size="10.50">Production Data Feed</text>
<text xml:space="preserve" text-anchor="start" x="722.25" y="-1618.32" font-family="Arial" font-size="9.00" fill="#2d3748">Finished Component Count Q via Shopfloor Web Form / CSV</text>
</g>
<!-- PROD_IN&#45;&gt;ACQ -->
<g id="edge7" class="edge">
<title>PROD_IN&#45;&gt;ACQ</title>
<path fill="none" stroke="#2b6cb0" stroke-width="1.6" d="M838.02,-1606.21C830.19,-1587.17 818.14,-1557.88 809.13,-1535.95"/>
<polygon fill="#2b6cb0" stroke="#2b6cb0" stroke-width="1.6" points="811.88,-1534.83 805.9,-1528.1 806.38,-1537.09 811.88,-1534.83"/>
</g>
<!-- OPT_EXT -->
<g id="node4" class="node">
<title>OPT_EXT</title>
<path fill="#edf2f7" stroke="#718096" stroke-width="1.4" stroke-dasharray="5,2" d="M1312.2,-1646.45C1312.2,-1646.45 1033.8,-1646.45 1033.8,-1646.45 1027.8,-1646.45 1021.8,-1640.45 1021.8,-1634.45 1021.8,-1634.45 1021.8,-1618.79 1021.8,-1618.79 1021.8,-1612.79 1027.8,-1606.79 1033.8,-1606.79 1033.8,-1606.79 1312.2,-1606.79 1312.2,-1606.79 1318.2,-1606.79 1324.2,-1612.79 1324.2,-1618.79 1324.2,-1618.79 1324.2,-1634.45 1324.2,-1634.45 1324.2,-1640.45 1318.2,-1646.45 1312.2,-1646.45"/>
<text xml:space="preserve" text-anchor="start" x="1096.12" y="-1627.39" font-family="Arial" font-weight="bold" font-size="10.50">Optional Enterprise Interfaces</text>
<text xml:space="preserve" text-anchor="start" x="1045.12" y="-1618.32" font-family="Arial" font-size="9.00" fill="#2d3748">Existing PLC/SCADA via Modbus TCP, ERP/MES via REST API</text>
</g>
<!-- OPT_EXT&#45;&gt;ACQ -->
<g id="edge8" class="edge">
<title>OPT_EXT&#45;&gt;ACQ</title>
<path fill="none" stroke="#718096" stroke-width="1.6" stroke-dasharray="5,2" d="M1111.75,-1606.21C1045.21,-1585.12 939.01,-1551.47 868.65,-1529.17"/>
<polygon fill="#718096" stroke="#718096" stroke-width="1.6" points="869.84,-1526.42 860.84,-1526.69 868.05,-1532.1 869.84,-1526.42"/>
<text xml:space="preserve" text-anchor="middle" x="1060.11" y="-1573.76" font-family="Arial" font-size="9.50">Optional Feed</text>
</g>
<!-- VAL -->
<g id="node6" class="node">
<title>VAL</title>
<path fill="#ebf8ff" stroke="#3182ce" stroke-width="1.4" d="M1019,-1452.63C1019,-1452.63 575,-1452.63 575,-1452.63 569,-1452.63 563,-1446.63 563,-1440.63 563,-1440.63 563,-1424.97 563,-1424.97 563,-1418.97 569,-1412.97 575,-1412.97 575,-1412.97 1019,-1412.97 1019,-1412.97 1025,-1412.97 1031,-1418.97 1031,-1424.97 1031,-1424.97 1031,-1440.63 1031,-1440.63 1031,-1446.63 1025,-1452.63 1019,-1452.63"/>
<text xml:space="preserve" text-anchor="start" x="710.38" y="-1433.58" font-family="Arial" font-weight="bold" font-size="10.50">Data Cleaning &amp; Range Validation</text>
<text xml:space="preserve" text-anchor="start" x="722.75" y="-1424.5" font-family="Arial" font-size="9.00" fill="#2d3748">Bounds: 300V&#45;480V, I ≥ 0, NaN Drop</text>
</g>
<!-- ACQ&#45;&gt;VAL -->
<g id="edge1" class="edge">
<title>ACQ&#45;&gt;VAL</title>
<path fill="none" stroke="#2b6cb0" stroke-width="1.6" d="M797,-1485.15C797,-1478.61 797,-1471.14 797,-1463.95"/>
<polygon fill="#2b6cb0" stroke="#2b6cb0" stroke-width="1.6" points="799.98,-1464.01 797,-1455.51 794.03,-1464.01 799.98,-1464.01"/>
</g>
<!-- TRAP -->
<g id="node7" class="node">
<title>TRAP</title>
<path fill="#ebf8ff" stroke="#3182ce" stroke-width="1.4" d="M1019,-1379.97C1019,-1379.97 575,-1379.97 575,-1379.97 569,-1379.97 563,-1373.97 563,-1367.97 563,-1367.97 563,-1352.31 563,-1352.31 563,-1346.31 569,-1340.31 575,-1340.31 575,-1340.31 1019,-1340.31 1019,-1340.31 1025,-1340.31 1031,-1346.31 1031,-1352.31 1031,-1352.31 1031,-1367.97 1031,-1367.97 1031,-1373.97 1025,-1379.97 1019,-1379.97"/>
<text xml:space="preserve" text-anchor="start" x="751.62" y="-1360.92" font-family="Arial" font-weight="bold" font-size="10.50">Sensor&#45;Loss Trap</text>
<text xml:space="preserve" text-anchor="start" x="691.62" y="-1351.84" font-family="Arial" font-size="9.00" fill="#2d3748">I_min &lt; 0.5A &amp; I_max &gt; 15A: Suppress False Alarms</text>
</g>
<!-- VAL&#45;&gt;TRAP -->
<g id="edge2" class="edge">
<title>VAL&#45;&gt;TRAP</title>
<path fill="none" stroke="#2b6cb0" stroke-width="1.6" d="M797,-1412.49C797,-1405.95 797,-1398.48 797,-1391.29"/>
<polygon fill="#2b6cb0" stroke="#2b6cb0" stroke-width="1.6" points="799.98,-1391.35 797,-1382.85 794.03,-1391.35 799.98,-1391.35"/>
</g>
<!-- BUF -->
<g id="node8" class="node">
<title>BUF</title>
<path fill="#fefcbf" stroke="#d69e2e" stroke-width="1.4" d="M1019,-1307.31C1019,-1307.31 575,-1307.31 575,-1307.31 569,-1307.31 563,-1301.31 563,-1295.31 563,-1295.31 563,-1279.65 563,-1279.65 563,-1273.65 569,-1267.65 575,-1267.65 575,-1267.65 1019,-1267.65 1019,-1267.65 1025,-1267.65 1031,-1273.65 1031,-1279.65 1031,-1279.65 1031,-1295.31 1031,-1295.31 1031,-1301.31 1025,-1307.31 1019,-1307.31"/>
<text xml:space="preserve" text-anchor="start" x="730.62" y="-1288.26" font-family="Arial" font-weight="bold" font-size="10.50">Local Circular Ring Buffer</text>
<text xml:space="preserve" text-anchor="start" x="727.62" y="-1279.18" font-family="Arial" font-size="9.00" fill="#2d3748">SQLite Storage: 45&#45;Day Retention</text>
</g>
<!-- TRAP&#45;&gt;BUF -->
<g id="edge3" class="edge">
<title>TRAP&#45;&gt;BUF</title>
<path fill="none" stroke="#2b6cb0" stroke-width="1.6" d="M797,-1339.83C797,-1333.29 797,-1325.82 797,-1318.63"/>
<polygon fill="#2b6cb0" stroke="#2b6cb0" stroke-width="1.6" points="799.98,-1318.69 797,-1310.19 794.03,-1318.69 799.98,-1318.69"/>
</g>
<!-- OFFLINE -->
<g id="node9" class="node">
<title>OFFLINE</title>
<path fill="#fefcbf" stroke="#d69e2e" stroke-width="1.4" d="M1019,-1234.65C1019,-1234.65 575,-1234.65 575,-1234.65 569,-1234.65 563,-1228.65 563,-1222.65 563,-1222.65 563,-1206.99 563,-1206.99 563,-1200.99 569,-1194.99 575,-1194.99 575,-1194.99 1019,-1194.99 1019,-1194.99 1025,-1194.99 1031,-1200.99 1031,-1206.99 1031,-1206.99 1031,-1222.65 1031,-1222.65 1031,-1228.65 1025,-1234.65 1019,-1234.65"/>
<text xml:space="preserve" text-anchor="start" x="717.88" y="-1215.6" font-family="Arial" font-weight="bold" font-size="10.50">Autonomous Offline Operation</text>
<text xml:space="preserve" text-anchor="start" x="713.38" y="-1206.52" font-family="Arial" font-size="9.00" fill="#2d3748">Full Functionality during Internet Outages</text>
</g>
<!-- BUF&#45;&gt;OFFLINE -->
<g id="edge4" class="edge">
<title>BUF&#45;&gt;OFFLINE</title>
<path fill="none" stroke="#2b6cb0" stroke-width="1.6" d="M797,-1267.17C797,-1260.63 797,-1253.16 797,-1245.97"/>
<polygon fill="#2b6cb0" stroke="#2b6cb0" stroke-width="1.6" points="799.98,-1246.03 797,-1237.53 794.03,-1246.03 799.98,-1246.03"/>
</g>
<!-- M1 -->
<g id="node10" class="node">
<title>M1</title>
<path fill="#ebf8ff" stroke="#3182ce" stroke-width="1.4" d="M1055,-1123.74C1055,-1123.74 539,-1123.74 539,-1123.74 533,-1123.74 527,-1117.74 527,-1111.74 527,-1111.74 527,-1096.08 527,-1096.08 527,-1090.08 533,-1084.08 539,-1084.08 539,-1084.08 1055,-1084.08 1055,-1084.08 1061,-1084.08 1067,-1090.08 1067,-1096.08 1067,-1096.08 1067,-1111.74 1067,-1111.74 1067,-1117.74 1061,-1123.74 1055,-1123.74"/>
<text xml:space="preserve" text-anchor="start" x="696.12" y="-1104.69" font-family="Arial" font-weight="bold" font-size="10.50">Module 1: Electrical Energy Calculation</text>
<text xml:space="preserve" text-anchor="start" x="671.38" y="-1095.61" font-family="Arial" font-size="9.00" fill="#2d3748">P, Q, S vectors, Discrete 5&#45;min kWh integration, Cable I</text>
<text xml:space="preserve" text-anchor="start" x="892.62" y="-1095.61" font-family="Arial" baseline-shift="super" font-size="9.00" fill="#2d3748">2</text>
<text xml:space="preserve" text-anchor="start" x="897.12" y="-1095.61" font-family="Arial" font-size="9.00" fill="#2d3748">R loss</text>
</g>
<!-- OFFLINE&#45;&gt;M1 -->
<g id="edge17" class="edge">
<title>OFFLINE&#45;&gt;M1</title>
<path fill="none" stroke="#2b6cb0" stroke-width="2" d="M797,-1194.35C797,-1178.01 797,-1154.38 797,-1135.52"/>
<polygon fill="#2b6cb0" stroke="#2b6cb0" stroke-width="2" points="799.98,-1135.74 797,-1127.24 794.03,-1135.74 799.98,-1135.74"/>
</g>
<!-- M2 -->
<g id="node11" class="node">
<title>M2</title>
<path fill="#ebf8ff" stroke="#3182ce" stroke-width="1.4" d="M1055,-1051.08C1055,-1051.08 539,-1051.08 539,-1051.08 533,-1051.08 527,-1045.08 527,-1039.08 527,-1039.08 527,-1023.42 527,-1023.42 527,-1017.42 533,-1011.42 539,-1011.42 539,-1011.42 1055,-1011.42 1055,-1011.42 1061,-1011.42 1067,-1017.42 1067,-1023.42 1067,-1023.42 1067,-1039.08 1067,-1039.08 1067,-1045.08 1061,-1051.08 1055,-1051.08"/>
<text xml:space="preserve" text-anchor="start" x="687.5" y="-1032.03" font-family="Arial" font-weight="bold" font-size="10.50">Module 2: Production&#45;Normalized Baseline</text>
<text xml:space="preserve" text-anchor="start" x="672.5" y="-1022.95" font-family="Arial" font-size="9.00" fill="#2d3748">Production&#45;Normalized Expected Power &amp; Energy Envelopes</text>
</g>
<!-- M1&#45;&gt;M2 -->
<g id="edge9" class="edge">
<title>M1&#45;&gt;M2</title>
<path fill="none" stroke="#2b6cb0" stroke-width="1.6" d="M797,-1083.6C797,-1077.06 797,-1069.59 797,-1062.4"/>
<polygon fill="#2b6cb0" stroke="#2b6cb0" stroke-width="1.6" points="799.98,-1062.46 797,-1053.96 794.03,-1062.46 799.98,-1062.46"/>
</g>
<!-- M3 -->
<g id="node12" class="node">
<title>M3</title>
<path fill="#ebf8ff" stroke="#3182ce" stroke-width="1.4" d="M1055,-978.42C1055,-978.42 539,-978.42 539,-978.42 533,-978.42 527,-972.42 527,-966.42 527,-966.42 527,-950.76 527,-950.76 527,-944.76 533,-938.76 539,-938.76 539,-938.76 1055,-938.76 1055,-938.76 1061,-938.76 1067,-944.76 1067,-950.76 1067,-950.76 1067,-966.42 1067,-966.42 1067,-972.42 1061,-978.42 1055,-978.42"/>
<text xml:space="preserve" text-anchor="start" x="681.5" y="-959.37" font-family="Arial" font-weight="bold" font-size="10.50">Module 3: Specific Energy Consumption SEC</text>
<text xml:space="preserve" text-anchor="start" x="672.5" y="-950.29" font-family="Arial" font-size="9.00" fill="#2d3748">SEC = kWh / Units Manufactured &#45; Division&#45;by&#45;Zero Protected</text>
</g>
<!-- M2&#45;&gt;M3 -->
<g id="edge10" class="edge">
<title>M2&#45;&gt;M3</title>
<path fill="none" stroke="#2b6cb0" stroke-width="1.6" d="M797,-1010.94C797,-1004.4 797,-996.93 797,-989.74"/>
<polygon fill="#2b6cb0" stroke="#2b6cb0" stroke-width="1.6" points="799.98,-989.8 797,-981.3 794.03,-989.8 799.98,-989.8"/>
</g>
<!-- M4 -->
<g id="node13" class="node">
<title>M4</title>
<path fill="#ebf8ff" stroke="#3182ce" stroke-width="1.4" d="M1055,-905.76C1055,-905.76 539,-905.76 539,-905.76 533,-905.76 527,-899.76 527,-893.76 527,-893.76 527,-878.1 527,-878.1 527,-872.1 533,-866.1 539,-866.1 539,-866.1 1055,-866.1 1055,-866.1 1061,-866.1 1067,-872.1 1067,-878.1 1067,-878.1 1067,-893.76 1067,-893.76 1067,-899.76 1061,-905.76 1055,-905.76"/>
<text xml:space="preserve" text-anchor="start" x="702.12" y="-886.71" font-family="Arial" font-weight="bold" font-size="10.50">Module 4: Anomaly Detection Engine</text>
<text xml:space="preserve" text-anchor="start" x="657.5" y="-877.63" font-family="Arial" font-size="9.00" fill="#2d3748">Statistical residuals &gt; 12%, NEMA unbalance, low PF, alert clustering</text>
</g>
<!-- M3&#45;&gt;M4 -->
<g id="edge11" class="edge">
<title>M3&#45;&gt;M4</title>
<path fill="none" stroke="#2b6cb0" stroke-width="1.6" d="M797,-938.28C797,-931.74 797,-924.27 797,-917.08"/>
<polygon fill="#2b6cb0" stroke="#2b6cb0" stroke-width="1.6" points="799.98,-917.14 797,-908.64 794.03,-917.14 799.98,-917.14"/>
</g>
<!-- M5 -->
<g id="node14" class="node">
<title>M5</title>
<path fill="#ebf8ff" stroke="#3182ce" stroke-width="1.4" d="M1055,-833.1C1055,-833.1 539,-833.1 539,-833.1 533,-833.1 527,-827.1 527,-821.1 527,-821.1 527,-805.44 527,-805.44 527,-799.44 533,-793.44 539,-793.44 539,-793.44 1055,-793.44 1055,-793.44 1061,-793.44 1067,-799.44 1067,-805.44 1067,-805.44 1067,-821.1 1067,-821.1 1067,-827.1 1061,-833.1 1055,-833.1"/>
<text xml:space="preserve" text-anchor="start" x="699.5" y="-814.05" font-family="Arial" font-weight="bold" font-size="10.50">Module 5: Physical Diagnostic Engine</text>
<text xml:space="preserve" text-anchor="start" x="656.38" y="-804.97" font-family="Arial" font-size="9.00" fill="#2d3748">Triangulates electrical balance, thermal rise, and ISO 10816 vibration</text>
</g>
<!-- M4&#45;&gt;M5 -->
<g id="edge12" class="edge">
<title>M4&#45;&gt;M5</title>
<path fill="none" stroke="#2b6cb0" stroke-width="1.6" d="M797,-865.62C797,-859.08 797,-851.61 797,-844.42"/>
<polygon fill="#2b6cb0" stroke="#2b6cb0" stroke-width="1.6" points="799.98,-844.48 797,-835.98 794.03,-844.48 799.98,-844.48"/>
</g>
<!-- M6 -->
<g id="node15" class="node">
<title>M6</title>
<path fill="#ebf8ff" stroke="#3182ce" stroke-width="1.4" d="M1055,-760.44C1055,-760.44 539,-760.44 539,-760.44 533,-760.44 527,-754.44 527,-748.44 527,-748.44 527,-732.78 527,-732.78 527,-726.78 533,-720.78 539,-720.78 539,-720.78 1055,-720.78 1055,-720.78 1061,-720.78 1067,-726.78 1067,-732.78 1067,-732.78 1067,-748.44 1067,-748.44 1067,-754.44 1061,-760.44 1055,-760.44"/>
<text xml:space="preserve" text-anchor="start" x="705.12" y="-741.39" font-family="Arial" font-weight="bold" font-size="10.50">Module 6: Time&#45;of&#45;Day Tariff Engine</text>
<text xml:space="preserve" text-anchor="start" x="666.12" y="-732.31" font-family="Arial" font-size="9.00" fill="#2d3748">MSEDCL HT&#45;1 slots: Off&#45;Peak ₹5.20, Normal ₹7.80, Peak ₹11.50</text>
</g>
<!-- M5&#45;&gt;M6 -->
<g id="edge13" class="edge">
<title>M5&#45;&gt;M6</title>
<path fill="none" stroke="#2b6cb0" stroke-width="1.6" d="M797,-792.96C797,-786.42 797,-778.95 797,-771.76"/>
<polygon fill="#2b6cb0" stroke="#2b6cb0" stroke-width="1.6" points="799.98,-771.82 797,-763.32 794.03,-771.82 799.98,-771.82"/>
</g>
<!-- M7 -->
<g id="node16" class="node">
<title>M7</title>
<path fill="#ebf8ff" stroke="#3182ce" stroke-width="1.4" d="M1055,-687.78C1055,-687.78 539,-687.78 539,-687.78 533,-687.78 527,-681.78 527,-675.78 527,-675.78 527,-660.12 527,-660.12 527,-654.12 533,-648.12 539,-648.12 539,-648.12 1055,-648.12 1055,-648.12 1061,-648.12 1067,-654.12 1067,-660.12 1067,-660.12 1067,-675.78 1067,-675.78 1067,-681.78 1061,-687.78 1055,-687.78"/>
<text xml:space="preserve" text-anchor="start" x="692.38" y="-668.73" font-family="Arial" font-weight="bold" font-size="10.50">Module 7: Three&#45;Tier Optimization Solver</text>
<text xml:space="preserve" text-anchor="start" x="663.12" y="-659.65" font-family="Arial" font-size="9.00" fill="#2d3748">Idle elimination + TOD peak load shifting + mechanical restoration</text>
</g>
<!-- M6&#45;&gt;M7 -->
<g id="edge14" class="edge">
<title>M6&#45;&gt;M7</title>
<path fill="none" stroke="#2b6cb0" stroke-width="1.6" d="M797,-720.3C797,-713.76 797,-706.29 797,-699.1"/>
<polygon fill="#2b6cb0" stroke="#2b6cb0" stroke-width="1.6" points="799.98,-699.16 797,-690.66 794.03,-699.16 799.98,-699.16"/>
</g>
<!-- M8 -->
<g id="node17" class="node">
<title>M8</title>
<path fill="#ebf8ff" stroke="#3182ce" stroke-width="1.4" d="M1055,-615.12C1055,-615.12 539,-615.12 539,-615.12 533,-615.12 527,-609.12 527,-603.12 527,-603.12 527,-587.46 527,-587.46 527,-581.46 533,-575.46 539,-575.46 539,-575.46 1055,-575.46 1055,-575.46 1061,-575.46 1067,-581.46 1067,-587.46 1067,-587.46 1067,-603.12 1067,-603.12 1067,-609.12 1061,-615.12 1055,-615.12"/>
<text xml:space="preserve" text-anchor="start" x="699.12" y="-596.07" font-family="Arial" font-weight="bold" font-size="10.50">Module 8: Savings Verification Engine</text>
<text xml:space="preserve" text-anchor="start" x="669.88" y="-586.99" font-family="Arial" font-size="9.00" fill="#2d3748">Decouples physical energy delta from tariff economic arbitrage</text>
</g>
<!-- M7&#45;&gt;M8 -->
<g id="edge15" class="edge">
<title>M7&#45;&gt;M8</title>
<path fill="none" stroke="#2b6cb0" stroke-width="1.6" d="M797,-647.64C797,-641.1 797,-633.63 797,-626.44"/>
<polygon fill="#2b6cb0" stroke="#2b6cb0" stroke-width="1.6" points="799.98,-626.5 797,-618 794.03,-626.5 799.98,-626.5"/>
</g>
<!-- M9 -->
<g id="node18" class="node">
<title>M9</title>
<path fill="#ebf8ff" stroke="#3182ce" stroke-width="1.4" d="M1055,-542.46C1055,-542.46 539,-542.46 539,-542.46 533,-542.46 527,-536.46 527,-530.46 527,-530.46 527,-514.8 527,-514.8 527,-508.8 533,-502.8 539,-502.8 539,-502.8 1055,-502.8 1055,-502.8 1061,-502.8 1067,-508.8 1067,-514.8 1067,-514.8 1067,-530.46 1067,-530.46 1067,-536.46 1061,-542.46 1055,-542.46"/>
<text xml:space="preserve" text-anchor="start" x="700.62" y="-523.4" font-family="Arial" font-weight="bold" font-size="10.50">Module 9: Carbon Accounting Engine</text>
<text xml:space="preserve" text-anchor="start" x="684.5" y="-514.33" font-family="Arial" font-size="9.00" fill="#2d3748">CEA India v19 grid emission factor: 0.716 kg CO2 / kWh</text>
</g>
<!-- M8&#45;&gt;M9 -->
<g id="edge16" class="edge">
<title>M8&#45;&gt;M9</title>
<path fill="none" stroke="#2b6cb0" stroke-width="1.6" d="M797,-574.98C797,-568.44 797,-560.97 797,-553.78"/>
<polygon fill="#2b6cb0" stroke="#2b6cb0" stroke-width="1.6" points="799.98,-553.84 797,-545.34 794.03,-553.84 799.98,-553.84"/>
</g>
<!-- DASH -->
<g id="node19" class="node">
<title>DASH</title>
<path fill="#feebc8" stroke="#dd6b20" stroke-width="1.8" d="M1091,-431.55C1091,-431.55 503,-431.55 503,-431.55 497,-431.55 491,-425.55 491,-419.55 491,-419.55 491,-402.39 491,-402.39 491,-396.39 497,-390.39 503,-390.39 503,-390.39 1091,-390.39 1091,-390.39 1097,-390.39 1103,-396.39 1103,-402.39 1103,-402.39 1103,-419.55 1103,-419.55 1103,-425.55 1097,-431.55 1091,-431.55"/>
<text xml:space="preserve" text-anchor="start" x="715.25" y="-411.07" font-family="Arial" font-weight="bold" font-size="12.00">Streamlit Operations Cockpit</text>
<text xml:space="preserve" text-anchor="start" x="679.25" y="-401.92" font-family="Arial" font-size="9.00" fill="#2d3748">Hackathon Demo Mode + Full 8&#45;Page Diagnostic Platform</text>
</g>
<!-- M9&#45;&gt;DASH -->
<g id="edge21" class="edge">
<title>M9&#45;&gt;DASH</title>
<path fill="none" stroke="#2b6cb0" stroke-width="2" d="M797,-502.28C797,-486.06 797,-462.59 797,-443.64"/>
<polygon fill="#2b6cb0" stroke="#2b6cb0" stroke-width="2" points="799.98,-443.77 797,-435.27 794.03,-443.77 799.98,-443.77"/>
</g>
<!-- ALERTS -->
<g id="node20" class="node">
<title>ALERTS</title>
<path fill="#fff5f5" stroke="#e53e3e" stroke-width="1.4" d="M416,-357.39C416,-357.39 44,-357.39 44,-357.39 38,-357.39 32,-351.39 32,-345.39 32,-345.39 32,-329.73 32,-329.73 32,-323.73 38,-317.73 44,-317.73 44,-317.73 416,-317.73 416,-317.73 422,-317.73 428,-323.73 428,-329.73 428,-329.73 428,-345.39 428,-345.39 428,-351.39 422,-357.39 416,-357.39"/>
<text xml:space="preserve" text-anchor="start" x="166.62" y="-338.33" font-family="Arial" font-weight="bold" font-size="10.50">Diagnostic Energy Alerts</text>
<text xml:space="preserve" text-anchor="start" x="87.88" y="-329.26" font-family="Arial" font-size="9.00" fill="#2d3748">Unexplained power surge, standby compressor idle waste, unbalance</text>
</g>
<!-- DASH&#45;&gt;ALERTS -->
<g id="edge18" class="edge">
<title>DASH&#45;&gt;ALERTS</title>
<path fill="none" stroke="#2b6cb0" stroke-width="1.6" d="M634.52,-389.51C559.51,-380.06 470.59,-368.86 395.24,-359.37"/>
<polygon fill="#2b6cb0" stroke="#2b6cb0" stroke-width="1.6" points="395.91,-356.46 387.1,-358.35 395.17,-362.36 395.91,-356.46"/>
</g>
<!-- SOPS -->
<g id="node21" class="node">
<title>SOPS</title>
<path fill="#f0fff4" stroke="#38a169" stroke-width="1.4" d="M837,-357.39C837,-357.39 465,-357.39 465,-357.39 459,-357.39 453,-351.39 453,-345.39 453,-345.39 453,-329.73 453,-329.73 453,-323.73 459,-317.73 465,-317.73 465,-317.73 837,-317.73 837,-317.73 843,-317.73 849,-323.73 849,-329.73 849,-329.73 849,-345.39 849,-345.39 849,-351.39 843,-357.39 837,-357.39"/>
<text xml:space="preserve" text-anchor="start" x="573.38" y="-338.33" font-family="Arial" font-weight="bold" font-size="10.50">Actionable Maintenance SOPs</text>
<text xml:space="preserve" text-anchor="start" x="511.5" y="-329.26" font-family="Arial" font-size="9.00" fill="#2d3748">REC&#45;001: Bearing regreasing &amp; laser alignment &#45; Saves ₹29,520/mo</text>
</g>
<!-- DASH&#45;&gt;SOPS -->
<g id="edge19" class="edge">
<title>DASH&#45;&gt;SOPS</title>
<path fill="none" stroke="#2b6cb0" stroke-width="1.6" d="M755.16,-389.51C738.1,-381.16 718.24,-371.45 700.46,-362.75"/>
<polygon fill="#2b6cb0" stroke="#2b6cb0" stroke-width="1.6" points="701.95,-360.17 693.01,-359.11 699.34,-365.51 701.95,-360.17"/>
</g>
<!-- SCHED -->
<g id="node22" class="node">
<title>SCHED</title>
<path fill="#f0fff4" stroke="#38a169" stroke-width="1.4" d="M1258,-357.39C1258,-357.39 886,-357.39 886,-357.39 880,-357.39 874,-351.39 874,-345.39 874,-345.39 874,-329.73 874,-329.73 874,-323.73 880,-317.73 886,-317.73 886,-317.73 1258,-317.73 1258,-317.73 1264,-317.73 1270,-323.73 1270,-329.73 1270,-329.73 1270,-345.39 1270,-345.39 1270,-351.39 1264,-357.39 1258,-357.39"/>
<text xml:space="preserve" text-anchor="start" x="935.88" y="-338.33" font-family="Arial" font-weight="bold" font-size="10.50">Intelligent Production Scheduling Recommendations</text>
<text xml:space="preserve" text-anchor="start" x="930.25" y="-329.26" font-family="Arial" font-size="9.00" fill="#2d3748">Reschedule 160 kW furnace to night off&#45;peak slot &#45; Saves ₹93,619/mo</text>
</g>
<!-- DASH&#45;&gt;SCHED -->
<g id="edge20" class="edge">
<title>DASH&#45;&gt;SCHED</title>
<path fill="none" stroke="#2b6cb0" stroke-width="1.6" d="M875.8,-389.51C910.47,-380.5 951.27,-369.91 986.66,-360.72"/>
<polygon fill="#2b6cb0" stroke="#2b6cb0" stroke-width="1.6" points="987.15,-363.67 994.62,-358.65 985.65,-357.91 987.15,-363.67"/>
</g>
<!-- PROD_GUARD -->
<g id="node23" class="node">
<title>PROD_GUARD</title>
<path fill="#c6f6d5" stroke="#22543d" stroke-width="2" d="M1053,-246.48C1053,-246.48 249,-246.48 249,-246.48 243,-246.48 237,-240.48 237,-234.48 237,-234.48 237,-209.32 237,-209.32 237,-203.32 243,-197.32 249,-197.32 249,-197.32 1053,-197.32 1053,-197.32 1059,-197.32 1065,-203.32 1065,-209.32 1065,-209.32 1065,-234.48 1065,-234.48 1065,-240.48 1059,-246.48 1053,-246.48"/>
<text xml:space="preserve" text-anchor="start" x="556.5" y="-226.95" font-family="Arial" font-weight="bold" font-size="11.00">PRODUCTION CONSTRAINT AUDIT</text>
<text xml:space="preserve" text-anchor="start" x="512.25" y="-217.85" font-family="Arial" font-size="9.00" fill="#276749">Baseline Output: 131,324.1 units | Optimized Output: 131,324.1 units</text>
<text xml:space="preserve" text-anchor="start" x="505.5" y="-208.85" font-family="Arial" font-weight="bold" font-size="9.00" fill="#276749">Constraint: ΔQ = 0.0 units &#45; 100% PRESERVED, NEVER THROTTLED</text>
</g>
<!-- DASH&#45;&gt;PROD_GUARD -->
<g id="edge24" class="edge">
<title>DASH&#45;&gt;PROD_GUARD</title>
<path fill="none" stroke="#22543d" stroke-width="2.2" d="M1103.67,-392.69C1192.15,-384.57 1268.88,-373.12 1283,-357.39 1299.52,-338.98 1299.37,-320.27 1283,-301.73 1263.02,-279.1 1145.08,-261.43 1016.39,-248.61"/>
<polygon fill="#22543d" stroke="#22543d" stroke-width="2.2" points="1016.78,-245.66 1008.03,-247.79 1016.2,-251.58 1016.78,-245.66"/>
</g>
<!-- SOPS&#45;&gt;PROD_GUARD -->
<!-- AUDIT_GRID -->
<g id="node24" class="node">
<title>AUDIT_GRID</title>
<path fill="#ebf8ff" stroke="#3182ce" stroke-width="1.4" d="M1053,-164.32C1053,-164.32 249,-164.32 249,-164.32 243,-164.32 237,-158.32 237,-152.32 237,-152.32 237,-118.16 237,-118.16 237,-112.16 243,-106.16 249,-106.16 249,-106.16 1053,-106.16 1053,-106.16 1059,-106.16 1065,-112.16 1065,-118.16 1065,-118.16 1065,-152.32 1065,-152.32 1065,-158.32 1059,-164.32 1053,-164.32"/>
<text xml:space="preserve" text-anchor="start" x="538.12" y="-144.79" font-family="Arial" font-weight="bold" font-size="11.00">Master Audited Before vs After Impact Grid</text>
<text xml:space="preserve" text-anchor="start" x="437.25" y="-135.69" font-family="Arial" font-size="9.00" fill="#2d3748">Active Energy: 191,139 to 159,166 kWh &#45;16.73% • Specific Energy SEC: 1.4555 to 1.2120 kWh/u &#45;16.73%</text>
<text xml:space="preserve" text-anchor="start" x="440.25" y="-126.69" font-family="Arial" font-size="9.00" fill="#2d3748">Electricity Bill: ₹19,40,446 to ₹15,78,857 &#45;18.63% • Peak Demand Shaved: 462.7 to 450.1 kVA &#45;12.6 kVA</text>
<text xml:space="preserve" text-anchor="start" x="534" y="-117.69" font-family="Arial" font-size="9.00" fill="#2d3748">Scope 2 Carbon: 136.85 to 113.96 MT CO2 &#45;22.89 MT/mo</text>
</g>
<!-- PROD_GUARD&#45;&gt;AUDIT_GRID -->
<g id="edge22" class="edge">
<title>PROD_GUARD&#45;&gt;AUDIT_GRID</title>
<path fill="none" stroke="#2b6cb0" stroke-width="1.6" d="M651,-196.41C651,-189.94 651,-182.78 651,-175.73"/>
<polygon fill="#2b6cb0" stroke="#2b6cb0" stroke-width="1.6" points="653.98,-175.78 651,-167.28 648.03,-175.78 653.98,-175.78"/>
</g>
<!-- ROI_BOX -->
<g id="node25" class="node">
<title>ROI_BOX</title>
<path fill="#fefcbf" stroke="#d69e2e" stroke-width="1.4" d="M1053,-73.16C1053,-73.16 249,-73.16 249,-73.16 243,-73.16 237,-67.16 237,-61.16 237,-61.16 237,-36 237,-36 237,-30 243,-24 249,-24 249,-24 1053,-24 1053,-24 1059,-24 1065,-30 1065,-36 1065,-36 1065,-61.16 1065,-61.16 1065,-67.16 1059,-73.16 1053,-73.16"/>
<text xml:space="preserve" text-anchor="start" x="547.88" y="-53.63" font-family="Arial" font-weight="bold" font-size="11.00">SME Commercial Return on Investment</text>
<text xml:space="preserve" text-anchor="start" x="466.12" y="-44.53" font-family="Arial" font-size="9.00" fill="#2d3748">Turnkey Capex: ₹ 1,52,150 (~$1,830 USD) • Instantaneous Payback: 12.7 Days (~13 Days)</text>
<text xml:space="preserve" text-anchor="start" x="430.12" y="-35.53" font-family="Arial" font-size="9.00" fill="#2d3748">Pragmatic Phased Industrial Payback: 1.8 to 3.5 Months • Net Year&#45;1 ROI: ₹ 41,50,911 &#45; 27.3x Capex Multiple</text>
</g>
<!-- AUDIT_GRID&#45;&gt;ROI_BOX -->
<g id="edge23" class="edge">
<title>AUDIT_GRID&#45;&gt;ROI_BOX</title>
<path fill="none" stroke="#2b6cb0" stroke-width="1.6" d="M651,-105.58C651,-98.78 651,-91.45 651,-84.41"/>
<polygon fill="#2b6cb0" stroke="#2b6cb0" stroke-width="1.6" points="653.98,-84.62 651,-76.12 648.03,-84.62 653.98,-84.62"/>
</g>
</g>
</svg>
